<mxfile host="app.diagrams.net" modified="2024-02-19T08:25:35.632Z" agent="Mozilla/5.0 (X11; Linux x86_64; rv:102.0) Gecko/20100101 Firefox/102.0" etag="doDPhktrdI1LJDQgBlTY" version="23.1.5" type="device">
  <diagram name="Page-1" id="260o_xa6h3rJVq1gaOll">
    <mxGraphModel dx="1434" dy="822" grid="1" gridSize="10" guides="1" tooltips="1" connect="1" arrows="1" fold="1" page="1" pageScale="1" pageWidth="827" pageHeight="1169" math="0" shadow="0">
      <root>
        <mxCell id="0" />
        <mxCell id="1" parent="0" />
        <mxCell id="-gpJgYwlw6Hybq1_usPO-2" value="" style="shape=actor;whiteSpace=wrap;html=1;" parent="1" vertex="1">
          <mxGeometry x="60" y="150" width="40" height="60" as="geometry" />
        </mxCell>
        <mxCell id="-gpJgYwlw6Hybq1_usPO-23" value="Mandatory" style="text;strokeColor=none;align=center;fillColor=none;html=1;verticalAlign=middle;whiteSpace=wrap;rounded=0;fontFamily=Roboto;fontSource=https%3A%2F%2Ffonts.googleapis.com%2Fcss%3Ffamily%3DRoboto;" parent="1" vertex="1">
          <mxGeometry x="180" y="260" width="60" height="30" as="geometry" />
        </mxCell>
        <mxCell id="-gpJgYwlw6Hybq1_usPO-24" value="Optional" style="text;strokeColor=none;align=center;fillColor=none;html=1;verticalAlign=middle;whiteSpace=wrap;rounded=0;fontFamily=Roboto;fontSource=https%3A%2F%2Ffonts.googleapis.com%2Fcss%3Ffamily%3DRoboto;" parent="1" vertex="1">
          <mxGeometry x="180" y="290" width="60" height="30" as="geometry" />
        </mxCell>
        <mxCell id="-gpJgYwlw6Hybq1_usPO-25" value="Recommended" style="text;strokeColor=none;align=center;fillColor=none;html=1;verticalAlign=middle;whiteSpace=wrap;rounded=0;fontFamily=Roboto;fontSource=https%3A%2F%2Ffonts.googleapis.com%2Fcss%3Ffamily%3DRoboto;" parent="1" vertex="1">
          <mxGeometry x="180" y="320" width="60" height="30" as="geometry" />
        </mxCell>
        <mxCell id="-gpJgYwlw6Hybq1_usPO-51" value="&lt;div&gt;Reverse&lt;/div&gt;&lt;div&gt;proxy&lt;br&gt;&lt;/div&gt;" style="rounded=0;whiteSpace=wrap;html=1;strokeWidth=3;perimeterSpacing=0;glass=0;strokeColor=#1E3F78;fillColor=#37B34A;fontFamily=Roboto;fontSource=https%3A%2F%2Ffonts.googleapis.com%2Fcss%3Ffamily%3DRoboto;fontColor=#FFFFFF;fontSize=11;fontStyle=1;spacing=2;gradientColor=none;opacity=60;" parent="1" vertex="1">
          <mxGeometry x="220" y="140" width="80" height="80" as="geometry" />
        </mxCell>
        <mxCell id="-gpJgYwlw6Hybq1_usPO-52" value="midPoint" style="rounded=0;whiteSpace=wrap;html=1;strokeWidth=3;perimeterSpacing=0;glass=0;strokeColor=#1E3F78;fillColor=#265DA6;fontFamily=Roboto;fontSource=https%3A%2F%2Ffonts.googleapis.com%2Fcss%3Ffamily%3DRoboto;fontColor=#FFFFFF;fontSize=11;fontStyle=1;spacing=2;" parent="1" vertex="1">
          <mxGeometry x="400" y="140" width="80" height="80" as="geometry" />
        </mxCell>
        <mxCell id="-gpJgYwlw6Hybq1_usPO-53" value="&lt;div&gt;Repository&lt;/div&gt;&lt;div&gt;(PostgreSQL)&lt;/div&gt;" style="rounded=0;whiteSpace=wrap;html=1;strokeWidth=3;perimeterSpacing=0;glass=0;strokeColor=#1E3F78;fillColor=#265DA6;fontFamily=Roboto;fontSource=https%3A%2F%2Ffonts.googleapis.com%2Fcss%3Ffamily%3DRoboto;fontColor=#FFFFFF;fontSize=11;fontStyle=1;spacing=2;" parent="1" vertex="1">
          <mxGeometry x="400" y="270" width="80" height="80" as="geometry" />
        </mxCell>
        <mxCell id="-gpJgYwlw6Hybq1_usPO-54" value="&lt;div&gt;Notifications&lt;/div&gt;&lt;div&gt;(SMTP)&lt;/div&gt;" style="rounded=0;whiteSpace=wrap;html=1;strokeWidth=3;perimeterSpacing=0;glass=0;strokeColor=#1E3F78;fillColor=#37B34A;fontFamily=Roboto;fontSource=https%3A%2F%2Ffonts.googleapis.com%2Fcss%3Ffamily%3DRoboto;fontColor=#FFFFFF;fontSize=11;fontStyle=1;spacing=2;opacity=50;" parent="1" vertex="1">
          <mxGeometry x="570" y="140" width="80" height="80" as="geometry" />
        </mxCell>
        <mxCell id="-gpJgYwlw6Hybq1_usPO-58" value="" style="group;fontSize=11;dashed=1;opacity=50;" parent="1" vertex="1" connectable="0">
          <mxGeometry x="570" y="260" width="80" height="89.5" as="geometry" />
        </mxCell>
        <mxCell id="-gpJgYwlw6Hybq1_usPO-59" value="" style="rounded=1;whiteSpace=wrap;html=1;strokeWidth=3;arcSize=8;strokeColor=#1E3F78;fontStyle=1;spacing=2;fontSize=12;fillColor=#37B34A;opacity=50;" parent="-gpJgYwlw6Hybq1_usPO-58" vertex="1">
          <mxGeometry x="3.8095238095238093" y="8.136363636363637" width="76.19047619047619" height="81.36363636363637" as="geometry" />
        </mxCell>
        <mxCell id="-gpJgYwlw6Hybq1_usPO-60" value="&lt;font color=&quot;#FFFFFF&quot;&gt;Resource(s)&lt;/font&gt;" style="rounded=1;whiteSpace=wrap;html=1;strokeWidth=3;arcSize=8;strokeColor=#1E3F78;fillColor=#37B34A;fontStyle=1;spacing=2;fontSize=12;opacity=50;" parent="-gpJgYwlw6Hybq1_usPO-58" vertex="1">
          <mxGeometry width="76.19047619047619" height="81.36363636363637" as="geometry" />
        </mxCell>
        <mxCell id="-gpJgYwlw6Hybq1_usPO-61" value="&lt;div&gt;https&lt;/div&gt;&lt;div&gt;(TCP/443)&lt;/div&gt;" style="endArrow=block;html=1;strokeWidth=3;strokeColor=#1E3F78;endFill=1;rounded=0;exitX=0.9;exitY=0.5;exitDx=0;exitDy=0;exitPerimeter=0;entryX=0;entryY=0.5;entryDx=0;entryDy=0;dashed=1;fontFamily=Roboto;fontSource=https%3A%2F%2Ffonts.googleapis.com%2Fcss%3Ffamily%3DRoboto;" parent="1" source="-gpJgYwlw6Hybq1_usPO-2" target="-gpJgYwlw6Hybq1_usPO-51" edge="1">
          <mxGeometry width="50" height="50" relative="1" as="geometry">
            <mxPoint x="320" y="390" as="sourcePoint" />
            <mxPoint x="460" y="390" as="targetPoint" />
          </mxGeometry>
        </mxCell>
        <mxCell id="-gpJgYwlw6Hybq1_usPO-62" value="http(s), ajp" style="endArrow=block;html=1;strokeWidth=3;strokeColor=#1E3F78;endFill=1;rounded=0;entryX=0;entryY=0.5;entryDx=0;entryDy=0;exitX=1;exitY=0.5;exitDx=0;exitDy=0;fontFamily=Roboto;fontSource=https%3A%2F%2Ffonts.googleapis.com%2Fcss%3Ffamily%3DRoboto;" parent="1" source="-gpJgYwlw6Hybq1_usPO-51" target="-gpJgYwlw6Hybq1_usPO-52" edge="1">
          <mxGeometry width="50" height="50" relative="1" as="geometry">
            <mxPoint x="320" y="390" as="sourcePoint" />
            <mxPoint x="380" y="310" as="targetPoint" />
          </mxGeometry>
        </mxCell>
        <mxCell id="-gpJgYwlw6Hybq1_usPO-63" value="" style="endArrow=block;html=1;strokeWidth=3;strokeColor=#1E3F78;endFill=1;dashed=1;dashPattern=1 1;rounded=0;startArrow=classic;startFill=1;exitX=1;exitY=0.75;exitDx=0;exitDy=0;entryX=0;entryY=0.5;entryDx=0;entryDy=0;" parent="1" source="-gpJgYwlw6Hybq1_usPO-52" target="-gpJgYwlw6Hybq1_usPO-60" edge="1">
          <mxGeometry width="50" height="50" relative="1" as="geometry">
            <mxPoint x="400" y="430" as="sourcePoint" />
            <mxPoint x="450" y="380" as="targetPoint" />
          </mxGeometry>
        </mxCell>
        <mxCell id="-gpJgYwlw6Hybq1_usPO-64" value="TCP/5432" style="endArrow=block;html=1;strokeWidth=3;strokeColor=#1E3F78;endFill=1;rounded=0;exitX=0.5;exitY=1;exitDx=0;exitDy=0;fontFamily=Roboto;fontSource=https%3A%2F%2Ffonts.googleapis.com%2Fcss%3Ffamily%3DRoboto;entryX=0.5;entryY=0;entryDx=0;entryDy=0;" parent="1" source="-gpJgYwlw6Hybq1_usPO-52" target="-gpJgYwlw6Hybq1_usPO-53" edge="1">
          <mxGeometry width="50" height="50" relative="1" as="geometry">
            <mxPoint x="330" y="290" as="sourcePoint" />
            <mxPoint x="390" y="260" as="targetPoint" />
          </mxGeometry>
        </mxCell>
        <mxCell id="-gpJgYwlw6Hybq1_usPO-65" value="TCP/587" style="endArrow=block;html=1;strokeWidth=3;strokeColor=#1E3F78;endFill=1;dashed=1;dashPattern=1 1;rounded=0;exitX=1;exitY=0.5;exitDx=0;exitDy=0;entryX=0;entryY=0.5;entryDx=0;entryDy=0;fontFamily=Roboto;fontSource=https%3A%2F%2Ffonts.googleapis.com%2Fcss%3Ffamily%3DRoboto;" parent="1" source="-gpJgYwlw6Hybq1_usPO-52" target="-gpJgYwlw6Hybq1_usPO-54" edge="1">
          <mxGeometry width="50" height="50" relative="1" as="geometry">
            <mxPoint x="320" y="390" as="sourcePoint" />
            <mxPoint x="370" y="340" as="targetPoint" />
          </mxGeometry>
        </mxCell>
        <mxCell id="-gpJgYwlw6Hybq1_usPO-66" value="" style="endArrow=block;html=1;strokeWidth=3;strokeColor=#1E3F78;endFill=1;rounded=0;" parent="1" edge="1">
          <mxGeometry width="50" height="50" relative="1" as="geometry">
            <mxPoint x="90" y="274.58" as="sourcePoint" />
            <mxPoint x="150" y="274.58" as="targetPoint" />
          </mxGeometry>
        </mxCell>
        <mxCell id="-gpJgYwlw6Hybq1_usPO-67" value="" style="endArrow=block;html=1;strokeWidth=3;strokeColor=#1E3F78;endFill=1;rounded=0;dashed=1;dashPattern=1 1;" parent="1" edge="1">
          <mxGeometry width="50" height="50" relative="1" as="geometry">
            <mxPoint x="90" y="304.58" as="sourcePoint" />
            <mxPoint x="150" y="304.58" as="targetPoint" />
          </mxGeometry>
        </mxCell>
        <mxCell id="-gpJgYwlw6Hybq1_usPO-68" value="" style="endArrow=block;html=1;strokeWidth=3;strokeColor=#1E3F78;endFill=1;rounded=0;dashed=1;" parent="1" edge="1">
          <mxGeometry width="50" height="50" relative="1" as="geometry">
            <mxPoint x="90" y="334.58" as="sourcePoint" />
            <mxPoint x="150" y="334.58" as="targetPoint" />
          </mxGeometry>
        </mxCell>
      </root>
    </mxGraphModel>
  </diagram>
</mxfile>
